<svg width="108" height="108" viewBox="0 0 108 108" fill="none" xmlns="http://www.w3.org/2000/svg">
<path d="M87.3718 95.713C85.9846 99.0554 84.4115 101.234 82.0569 102.594C77.3757 105.296 71.4335 103.704 59.5491 100.52L35.5685 94.0943L34.4042 65.3135L87.3718 95.713Z" fill="#FFC149" style="fill:#FFC149;fill:color(display-p3 1.0000 0.7570 0.2854);fill-opacity:1;"/>
<path d="M35.5685 94.0959L25.935 91.5146C17.5436 89.2662 12.1148 87.8115 8.69697 85.5028L34.4042 65.3137L35.5685 94.0959Z" fill="#1EDB75" style="fill:#1EDB75;fill:color(display-p3 0.1186 0.8604 0.4598);fill-opacity:1;"/>
<path d="M8.46533 55.8667L7.47914 59.5472C4.29473 71.4316 2.70252 77.3738 5.40525 82.0551C6.19965 83.431 7.27392 84.5401 8.69668 85.5012L34.404 65.3141L8.46533 55.8667Z" fill="#38BDF8" style="fill:#38BDF8;fill:color(display-p3 0.2196 0.7412 0.9725);fill-opacity:1;"/>
<path d="M30.5246 4.06559C28.8091 4.1859 27.3222 4.60932 25.9444 5.40475C21.2632 8.10749 19.671 14.0497 16.4866 25.9341L8.46621 55.8664L34.4042 65.3134L30.5246 4.06559Z" fill="#3B82F6" style="fill:#3B82F6;fill:color(display-p3 0.2314 0.5098 0.9647);fill-opacity:1;"/>
<path fill-rule="evenodd" clip-rule="evenodd" d="M88.6424 32.5207L101.689 24.6327C102.025 25.0421 102.326 25.4776 102.595 25.9437C105.298 30.6249 103.706 36.5671 100.521 48.4515L100.521 48.4515L91.5143 82.0657C89.9318 87.9717 88.7425 92.4102 87.3719 95.7129L34.4041 65.3138L55.5992 52.4989C55.6626 52.6524 55.7362 52.8017 55.8206 52.9479C56.8717 54.7684 59.1825 55.3876 63.8043 56.6259L73.6084 59.2529C78.2301 60.4913 80.5409 61.1105 82.3614 60.0595C84.1819 59.0084 84.8011 56.6975 86.0395 52.0758L88.6665 42.2717C89.9049 37.65 90.5241 35.3391 89.473 33.5186C89.254 33.1393 88.9803 32.8122 88.6424 32.5207Z" fill="#FF4040" style="fill:#FF4040;fill:color(display-p3 1.0000 0.2503 0.2503);fill-opacity:1;"/>
<path fill-rule="evenodd" clip-rule="evenodd" d="M82.0664 16.4858C92.7683 19.3534 98.6516 20.9298 101.69 24.6335L88.642 32.5222C87.3582 31.415 85.1477 30.8227 81.4894 29.8424L71.6853 27.2154C67.0636 25.977 64.7527 25.3578 62.9322 26.4089C61.1117 27.46 60.4925 29.7708 59.2542 34.3925L56.6271 44.1967C55.4884 48.4464 54.8733 50.7423 55.5988 52.4997L34.4041 65.3137L30.5252 4.06589C34.6386 3.77759 40.066 5.23185 48.4523 7.47897L82.0664 16.4858Z" fill="#F472B6" style="fill:#F472B6;fill:color(display-p3 0.9569 0.4471 0.7137);fill-opacity:1;"/>
</svg>
