<svg width="344" height="344" viewBox="0 0 344 344" fill="none" xmlns="http://www.w3.org/2000/svg">
<path d="M154.282 106.366C144.998 104.383 138.894 104.235 133.712 107.227C125.866 111.757 123.197 121.718 117.859 141.639L113.83 156.676L36.7063 136.011L47.5291 95.619C59.5392 50.7968 65.5447 28.3861 83.2 18.1926C94.9878 11.3869 108.895 11.8025 130.177 16.4043L154.282 106.366Z" fill="#166AF3" style="fill:#166AF3;fill:color(display-p3 0.0876 0.4163 0.9532);fill-opacity:1;"/>
<path d="M109.649 172.277C104.311 192.198 101.642 202.159 106.172 210.006C109.114 215.101 114.347 218.012 123.11 220.889L57.9385 285.821C37.2363 279.171 24.9984 272.578 18.1979 260.8C8.00448 243.144 14.0084 220.732 26.0185 175.91L36.7075 136.018L113.829 156.677L109.649 172.277Z" fill="#1DBAEE" style="fill:#1DBAEE;fill:color(display-p3 0.1123 0.7283 0.9336);fill-opacity:1;"/>
<path d="M213.541 327.533C203.009 325.244 190.674 321.939 175.908 317.983L95.6168 296.469C80.8508 292.512 68.2009 289.103 57.9349 285.819L123.105 220.889C127.836 222.443 133.596 223.988 140.581 225.86L171.218 234.069C178.636 236.057 184.674 237.673 189.735 238.687L213.541 327.533Z" fill="#15BB72" style="fill:#15BB72;fill:color(display-p3 0.0809 0.7322 0.4469);fill-opacity:1;"/>
<path d="M296.474 248.38C284.463 293.203 278.458 315.613 260.803 325.807C248.963 332.642 234.986 332.194 213.546 327.535L189.74 238.687C198.27 240.395 204.027 240.389 208.952 237.545C216.799 233.015 219.468 223.054 224.806 203.133L228.987 187.53L307.165 208.478L296.474 248.38Z" fill="#FFC400" style="fill:#FFC400;fill:color(display-p3 1.0000 0.7667 0.0000);fill-opacity:1;"/>
<path d="M285.602 58.0286C306.585 64.7296 318.955 71.3327 325.806 83.199C335.999 100.855 329.995 123.265 317.985 168.088L307.159 208.488L228.982 187.54L233.013 172.496C238.351 152.575 241.019 142.614 236.489 134.767C233.564 129.701 228.377 126.794 219.707 123.933L285.602 58.0286Z" fill="#EC1D5F" style="fill:#EC1D5F;fill:color(display-p3 0.9255 0.1137 0.3708);fill-opacity:1;"/>
<path d="M248.382 47.5277C263.278 51.5191 275.7 54.8486 286.02 58.1616L220.368 123.814L154.209 106.087L130.179 16.4043C140.773 18.695 153.194 22.0221 168.09 26.0136L248.382 47.5277Z" fill="#FC77BD" style="fill:#FC77BD;fill:color(display-p3 0.9897 0.4651 0.7395);fill-opacity:1;"/>
<path d="M249.934 41.7326L258.044 43.9089C276.431 48.8595 291.07 52.9835 302.391 57.7094C315.49 63.1776 324.986 69.7788 331.003 80.1994C337.019 90.6201 337.987 102.145 336.173 116.223C334.381 130.128 329.743 147.394 323.782 169.641L302.267 249.933C296.306 272.181 291.69 289.453 286.289 302.391C280.821 315.49 274.221 324.987 263.8 331.003C253.38 337.02 241.855 337.987 227.777 336.173C213.871 334.382 196.606 329.742 174.359 323.781L94.0665 302.267C71.8194 296.306 54.5478 291.691 41.6095 286.29C28.5105 280.822 19.0135 274.221 12.9971 263.801C6.98081 253.38 6.01229 241.855 7.82622 227.777C9.61795 213.872 14.2576 196.606 20.2187 174.359L41.7331 94.0661C47.6941 71.819 52.3088 54.5474 57.7098 41.6091C63.178 28.5099 69.7792 19.0133 80.1998 12.997C90.6205 6.98059 102.145 6.01208 116.224 7.82606C130.129 9.61781 147.394 14.2572 169.641 20.2183L249.934 41.7326ZM166.231 115.523C158.032 113.339 152.064 111.832 147.279 111.216C142.315 110.576 139.418 111.014 137.155 112.18L136.71 112.423C134.38 113.769 132.436 116.046 130.379 120.973C128.255 126.061 126.364 133.068 123.651 143.192L115.442 173.83L114.465 177.484C112.281 185.683 110.776 191.652 110.159 196.436C109.477 201.731 110.022 204.675 111.367 207.005L111.63 207.438C113.007 209.579 115.298 211.408 119.916 213.336C125.004 215.46 132.011 217.351 142.135 220.064L172.773 228.274C182.897 230.986 189.911 232.852 195.379 233.556C200.674 234.239 203.618 233.694 205.949 232.348L206.381 232.085C208.522 230.708 210.351 228.418 212.279 223.799C214.403 218.711 216.294 211.704 219.006 201.58L227.216 170.942C229.929 160.818 231.795 153.804 232.5 148.336C233.139 143.372 232.701 140.474 231.535 138.211L231.293 137.766C229.947 135.436 227.67 133.493 222.742 131.436C217.654 129.312 210.647 127.422 200.523 124.709L169.885 116.5L166.231 115.523Z" stroke="#F8FAFC" style="stroke:#F8FAFC;stroke:color(display-p3 0.9725 0.9804 0.9882);stroke-opacity:1;" stroke-width="12"/>
</svg>
