<svg width="61" height="61" viewBox="0 0 61 61" fill="none" xmlns="http://www.w3.org/2000/svg">
<path d="M24 50.2001L22 58.2001C22 58.2001 40.2 58.7001 47.8 52.5001C55.4 46.3001 53.5 46.7001 53.5 46.7001L45.5 39.1001L24 50.2001Z" fill="#F2C57E" style="fill:#F2C57E;fill:color(display-p3 0.9490 0.7725 0.4941);fill-opacity:1;"/>
<path d="M29.3 51.3001C29.3 51.3001 29.9 57.2001 31.9 58.3001C31.9 58.3001 22.2 59.0001 22.4 56.4001L23.8 50.1001L29.3 51.3001Z" fill="#BD704B" style="fill:#BD704B;fill:color(display-p3 0.7412 0.4392 0.2941);fill-opacity:1;"/>
<path d="M22.5 36.6001C22.5 36.6001 24.3 39.1001 24.7 42.8001C25.1 46.5001 20.7 49.7001 28.8 51.2001C36 52.5001 51.7 45.7001 46.6 40.6001C43.4 37.4001 41.2 34.8001 42.6 28.6001C44.1 22.4001 35.5 18.6001 35.5 18.6001L22.5 36.6001Z" fill="#F2C57E" style="fill:#F2C57E;fill:color(display-p3 0.9490 0.7725 0.4941);fill-opacity:1;"/>
<path d="M41.6002 34.6001C41.6002 34.6001 44.3002 41.7001 53.1002 47.0001L53.8002 45.4001C53.8002 45.4001 46.4002 43.1001 42.4002 34.3001C38.4002 25.5001 41.4002 34.6001 41.6002 34.6001ZM25.8002 9.50008C25.8002 9.50008 20.7002 11.7001 23.0002 27.5001C23.7002 36.1001 20.1002 35.4001 19.4002 34.6001C18.6002 33.9001 21.8002 29.5001 20.0002 28.0001C18.2002 26.5001 16.0002 27.9001 13.8002 23.6001C11.0002 18.0001 14.3002 20.3001 16.9002 15.5001C18.8002 12.0001 20.2002 10.0001 21.8002 10.2001C23.1002 10.3001 24.3002 8.40008 25.8002 9.50008Z" fill="#BD704B" style="fill:#BD704B;fill:color(display-p3 0.7412 0.4392 0.2941);fill-opacity:1;"/>
<path d="M15.5999 27.6001C15.5999 27.6001 15.7999 31.3001 15.0999 33.4001C13.9999 36.5001 16.7999 40.7001 20.8999 36.2001C24.9999 31.7001 15.5999 27.6001 15.5999 27.6001Z" fill="#F2C57E" style="fill:#F2C57E;fill:color(display-p3 0.9490 0.7725 0.4941);fill-opacity:1;"/>
<path d="M36.4001 10.5002C36.4001 10.5002 28.5001 6.50022 22.2001 11.0002C15.9001 15.5002 20.9001 14.9002 17.1001 20.6002C13.3001 26.3002 16.4001 39.1002 28.6001 39.3002C40.8001 39.5002 40.6001 16.1002 40.6001 16.1002C40.6001 16.1002 39.4001 10.9002 36.4001 10.5002Z" fill="#F2C57E" style="fill:#F2C57E;fill:color(display-p3 0.9490 0.7725 0.4941);fill-opacity:1;"/>
<path d="M33.7001 36.5C33.7001 36.5 29.9001 39.9 30.1001 42.2C30.2001 44.5 39.6001 44 31.3001 46.3C29.0001 46.9 29.1001 50.7 30.9001 51.4C32.7001 52.1 24.0001 50.7 24.1001 47.8C24.2001 45 25.4001 39.9 22.5001 38C22.3001 38 29.6001 40.2 33.7001 36.5Z" fill="#BD704B" style="fill:#BD704B;fill:color(display-p3 0.7412 0.4392 0.2941);fill-opacity:1;"/>
<path d="M23.9 47.5998C23.9 47.5998 31.4 51.1998 39.1 46.9998C44.8 43.8998 46.6 40.4998 46 39.7998C46 39.7998 47.4 39.8998 48.7 41.8998C49.7 43.3998 48.1 47.9998 39.7 51.4998C31.8 54.6998 24.7 52.6998 23.3 51.2998C22 49.8998 23.9 47.5998 23.9 47.5998Z" fill="#AD4646" style="fill:#AD4646;fill:color(display-p3 0.6784 0.2745 0.2745);fill-opacity:1;"/>
<path d="M20.9 19.4C20.4 19.4 20 19 20 18.5V16.4C20 15.9 20.4 15.5 20.9 15.5C21.4 15.5 21.8 15.9 21.8 16.4V18.5C21.8 19 21.4 19.4 20.9 19.4Z" fill="#3F2418" style="fill:#3F2418;fill:color(display-p3 0.2471 0.1412 0.0941);fill-opacity:1;"/>
<path d="M23.2 17C23.2 17 16.6 21.7 14.1 22.7C11.6 23.7 11.7 26.4 15.1 29.2C18.5 32 28.6 24.6 23.2 17Z" fill="#F2C57E" style="fill:#F2C57E;fill:color(display-p3 0.9490 0.7725 0.4941);fill-opacity:1;"/>
<path d="M13.6001 27.5998C13.6001 27.5998 16.1001 30.2998 14.6001 33.2998C13.6001 35.2998 14.6001 39.0998 18.3001 37.9998C18.3001 37.9998 14.0001 38.1998 15.7001 33.3998C16.3001 31.5998 16.3001 28.8998 13.6001 27.5998ZM34.8001 9.89979C34.8001 9.89979 42.0001 12.7998 39.4001 28.5998C38.5001 37.1998 42.7001 36.4998 43.7001 35.6998C44.6001 34.9998 44.7001 32.1998 46.8001 30.7998C48.8001 29.2998 53.8001 24.8998 51.3001 20.4998C48.8001 16.0998 46.2001 16.9998 44.6001 14.0998C43.1001 11.4998 42.1001 11.0998 40.3001 11.0998C38.8001 11.0998 36.7001 8.89979 34.8001 9.89979Z" fill="#BD704B" style="fill:#BD704B;fill:color(display-p3 0.7412 0.4392 0.2941);fill-opacity:1;"/>
<path d="M32.7998 20.3C32.2998 20.3 31.7998 19.9 31.7998 19.3V17C31.7998 16.5 32.1998 16 32.7998 16C33.2998 16 33.7998 16.4 33.7998 17V19.4C33.7998 19.9 33.2998 20.3 32.7998 20.3Z" fill="#3F2418" style="fill:#3F2418;fill:color(display-p3 0.2471 0.1412 0.0941);fill-opacity:1;"/>
<path d="M31.1997 15.3999C31.1997 15.3999 28.9997 14.1999 30.7997 13.1999C33.0997 11.8999 35.6997 13.9999 36.0997 15.1999C36.0997 15.1999 33.3997 12.6999 31.1997 13.8999C29.9997 14.4999 31.1997 15.3999 31.1997 15.3999ZM21.6997 13.4999C21.6212 13.3212 21.4784 13.1785 21.2997 13.0999C20.9997 12.8999 20.4997 12.8999 20.0997 12.9999C19.6997 13.0999 19.3997 13.3999 19.0997 13.5999C19.2997 13.0999 19.5997 12.6999 20.0997 12.4999C20.2997 12.3999 20.5997 12.3999 20.7997 12.3999C21.2997 12.3999 21.7997 12.5999 22.1997 12.8999C22.5997 13.1999 22.7997 13.6999 22.7997 14.1999C22.6997 14.5999 22.4997 14.9999 22.0997 15.0999C21.9997 15.0999 21.8997 15.1999 21.8997 15.0999C21.8997 14.9999 21.9997 14.8999 21.9997 14.7999C22.0997 14.5999 22.0997 14.3999 21.9997 14.0999C21.9997 13.9999 21.8997 13.6999 21.6997 13.4999ZM18.1997 32.4999C18.1997 32.4999 20.3997 39.8999 28.5997 38.0999C36.0997 36.3999 37.1997 29.9999 37.1997 29.9999C37.6997 31.4999 35.5997 40.1999 25.3997 39.3999C17.9997 38.7999 18.1997 32.4999 18.1997 32.4999Z" fill="#BD704B" style="fill:#BD704B;fill:color(display-p3 0.7412 0.4392 0.2941);fill-opacity:1;"/>
<path d="M19.7998 36.1001C19.7998 36.1001 19.4998 39.0001 15.2998 37.5001C15.2998 37.5001 17.3998 39.9001 19.9998 37.3001C21.1998 36.0001 19.7998 36.1001 19.7998 36.1001ZM13.1998 25.4001C12.6998 25.1001 12.6998 24.3001 12.9998 23.8001C13.3998 23.3001 14.1998 22.9001 14.7998 22.6001C17.8998 21.2001 21.1998 19.3001 23.4998 16.6001C23.4998 16.6001 16.4998 21.5001 12.7998 22.8001C10.9998 23.5001 13.1998 25.4001 13.1998 25.4001Z" fill="#BD704B" style="fill:#BD704B;fill:color(display-p3 0.7412 0.4392 0.2941);fill-opacity:1;"/>
<path d="M12.3999 23.9001C11.2999 25.0001 13.0999 28.3001 15.2999 29.3001C17.7999 30.4001 21.3999 26.1001 20.6999 24.9001C19.8999 23.3001 14.6999 21.6001 12.3999 23.9001Z" fill="#AD4646" style="fill:#AD4646;fill:color(display-p3 0.6784 0.2745 0.2745);fill-opacity:1;"/>
<mask id="mask0_887_524" style="mask-type:luminance" maskUnits="userSpaceOnUse" x="12" y="22" width="9" height="8">
<path d="M12.3999 23.9001C11.2999 25.0001 13.0999 28.3001 15.2999 29.3001C17.7999 30.4001 21.3999 26.1001 20.6999 24.9001C19.8999 23.3001 14.6999 21.6001 12.3999 23.9001V23.9001Z" fill="white" style="fill:white;fill-opacity:1;"/>
</mask>
<g mask="url(#mask0_887_524)">
<path d="M16.8997 27.7C16.6997 27.4 16.6997 26.9 16.8997 26.7C16.9997 26.6 17.0997 26.5 17.1997 26.5C17.3997 26.4 17.5997 26.4 17.6997 26.4C18.5997 26.3 19.5997 26.7 20.1997 27.4C20.6997 27.9 20.4997 28.4 19.9997 28.7C19.3997 29 18.5997 29.1 17.8997 28.8C17.4472 28.5625 17.0931 28.1729 16.8997 27.7ZM14.5997 27.7C14.6997 27.4 14.7997 27 14.5997 26.7C14.4997 26.6 14.3997 26.5 14.2997 26.5C14.1997 26.4 13.9997 26.4 13.8997 26.4C13.1997 26.3 12.4997 26.7 11.8997 27.4C11.4997 27.9 11.6997 28.4 12.0997 28.7C12.5997 29 13.1997 29.1 13.6997 28.8C13.932 28.7101 14.1371 28.5615 14.2948 28.3687C14.4526 28.1759 14.5576 27.9455 14.5997 27.7Z" fill="#6A2524" style="fill:#6A2524;fill:color(display-p3 0.4157 0.1451 0.1412);fill-opacity:1;"/>
</g>
<path d="M30.7002 60.5C14.2002 60.5 0.700195 47 0.700195 30.5C0.700195 14 14.2002 0.5 30.7002 0.5C47.2002 0.5 60.7002 14 60.7002 30.5C60.7002 47 47.3002 60.5 30.7002 60.5ZM30.7002 4.5C16.4002 4.5 4.7002 16.2 4.7002 30.5C4.7002 44.8 16.4002 56.5 30.7002 56.5C45.0002 56.5 56.7002 44.8 56.7002 30.5C56.7002 16.2 45.1002 4.5 30.7002 4.5Z" fill="#AD4646" style="fill:#AD4646;fill:color(display-p3 0.6784 0.2745 0.2745);fill-opacity:1;"/>
<path d="M22.1997 10.3999C22.1997 10.3999 31.2997 6.5999 37.8997 12.3999C37.8997 12.3999 37.6997 9.6999 32.5997 8.5999C29.8997 7.9999 23.8997 8.0999 22.1997 10.3999Z" fill="#BD704B" style="fill:#BD704B;fill:color(display-p3 0.7412 0.4392 0.2941);fill-opacity:1;"/>
<path d="M21.3998 33.4997C21.7312 33.4997 21.9998 33.3206 21.9998 33.0997C21.9998 32.8788 21.7312 32.6997 21.3998 32.6997C21.0684 32.6997 20.7998 32.8788 20.7998 33.0997C20.7998 33.3206 21.0684 33.4997 21.3998 33.4997Z" fill="#BD704B" style="fill:#BD704B;fill:color(display-p3 0.7412 0.4392 0.2941);fill-opacity:1;"/>
<path d="M25.2997 35.4997C25.6311 35.4997 25.8997 35.3206 25.8997 35.0997C25.8997 34.8788 25.6311 34.6997 25.2997 34.6997C24.9683 34.6997 24.6997 34.8788 24.6997 35.0997C24.6997 35.3206 24.9683 35.4997 25.2997 35.4997Z" fill="#BD704B" style="fill:#BD704B;fill:color(display-p3 0.7412 0.4392 0.2941);fill-opacity:1;"/>
<path d="M28.7997 35.4001C29.1311 35.4001 29.3997 35.221 29.3997 35.0001C29.3997 34.7792 29.1311 34.6001 28.7997 34.6001C28.4683 34.6001 28.1997 34.7792 28.1997 35.0001C28.1997 35.221 28.4683 35.4001 28.7997 35.4001Z" fill="#BD704B" style="fill:#BD704B;fill:color(display-p3 0.7412 0.4392 0.2941);fill-opacity:1;"/>
<path d="M27.1 37.1999C27.4314 37.1999 27.7 37.0208 27.7 36.7999C27.7 36.579 27.4314 36.3999 27.1 36.3999C26.7686 36.3999 26.5 36.579 26.5 36.7999C26.5 37.0208 26.7686 37.1999 27.1 37.1999Z" fill="#BD704B" style="fill:#BD704B;fill:color(display-p3 0.7412 0.4392 0.2941);fill-opacity:1;"/>
<path d="M22.6996 36.0998C23.031 36.0998 23.2996 35.9207 23.2996 35.6998C23.2996 35.4789 23.031 35.2998 22.6996 35.2998C22.3682 35.2998 22.0996 35.4789 22.0996 35.6998C22.0996 35.9207 22.3682 36.0998 22.6996 36.0998Z" fill="#BD704B" style="fill:#BD704B;fill:color(display-p3 0.7412 0.4392 0.2941);fill-opacity:1;"/>
</svg>
